#!OML:ASF F:\VICON\USERDATA\INSTALL\rory3\rory3.ASF
:FULLY-SPECIFIED
:DEGREES
72
root 2.12278 17.1972 -24.9807 165.613 -55.2651 9.48773
lowerback -0.638411 8.54655 12.4674
upperback -21.3271 14.0823 -9.12788
thorax -18.4296 3.96102 -19.5694
lowerneck -1.28251 -3.32229 34.789
upperneck -17.6664 -5.30398 -11.1057
head -6.58779 -4.38074 -8.93125
rclavicle -1.68569e-013 -8.90555e-014
rhumerus 45.5061 -19.609 -23.9505
rradius 34.286
rwrist 18.6505
rhand -30.6374 98.5922
rfingers 7.12502
rthumb 176.067 -51.4644
lclavicle -1.68569e-013 -8.90555e-014
lhumerus 91.55 14.4938 10.512
lradius 35.8553
lwrist 38.0351
lhand -49.032 -259.242
lfingers 7.12502
lthumb -21.6597 -71.9491
rfemur -99.9884 -40.673 -10.2172
rtibia 74.9816
rfoot -20.8398 -24.1885
rtoes -14.351
lfemur -21.5947 8.62567 -4.61469
ltibia 41.5339
lfoot -20.2535 17.944
ltoes -7.67979
73
root 2.10446 17.2128 -24.7537 168.324 -56.0004 7.74462
lowerback -1.24254 8.51698 12.1357
upperback -21.4133 13.9061 -9.1927
thorax -18.264 3.95731 -19.3133
lowerneck -1.36851 -3.10248 33.1611
upperneck -17.7037 -4.98695 -10.4303
head -6.43502 -4.16991 -8.46843
rclavicle 1.55847e-013 6.52014e-014
rhumerus 46.7442 -19.6401 -23.7181
rradius 33.221
rwrist 19.0469
rhand -31.6933 98.8287
rfingers 7.12502
rthumb 175.047 -51.2492
lclavicle 1.55847e-013 6.52014e-014
lhumerus 91.3227 14.7509 10.6907
lradius 35.5248
lwrist 37.7798
lhand -48.9023 -258.413
lfingers 7.12502
lthumb -21.5351 -72.7639
rfemur -97.3219 -39.3249 -10.8875
rtibia 73.7515
rfoot -21.9175 -24.9217
rtoes -15.794
lfemur -22.833 7.56269 -4.47515
ltibia 37.8268
lfoot -20.51 19.482
ltoes -6.85165
74
root 2.06637 17.2405 -24.6591 170.641 -56.0417 6.42439
lowerback -2.26188 8.42346 10.4751
upperback -21.4555 13.5198 -8.78304
thorax -18.2642 4.1209 -17.6533
lowerneck -1.32373 -2.91384 31.5756
upperneck -17.8581 -4.66671 -9.78976
head -6.35212 -3.96424 -8.02643
rclavicle 1.66979e-013 9.85972e-014
rhumerus 48.1155 -19.8599 -23.7957
rradius 32.0084
rwrist 19.5529
rhand -31.8709 98.4916
rfingers 7.12502
rthumb 174.876 -51.5904
lclavicle 1.66979e-013 9.85972e-014
lhumerus 90.9186 15.2184 10.3004
lradius 35.2656
lwrist 37.9069
lhand -48.7791 -257.707
lfingers 7.12502
lthumb -21.4169 -73.4572
rfemur -94.577 -36.247 -12.2713
rtibia 72.2324
rfoot -22.9378 -26.9308
rtoes -14.0597
lfemur -23.7087 7.14207 -3.27827
ltibia 34.1347
lfoot -20.697 20.9644
ltoes -7.52276
75
root 2.08008 17.281 -24.3771 172.103 -57.2471 5.89335
lowerback -2.30252 8.30106 11.9114
upperback -21.4817 13.3995 -8.96867
thorax -17.9627 3.80719 -18.6404
lowerneck -1.40403 -2.71361 29.8767
upperneck -17.9658 -4.3601 -9.02575
head -6.23885 -3.76395 -7.52197
rclavicle -3.33958e-014 -9.85972e-014
rhumerus 49.5432 -20.1567 -23.9044
rradius 30.7659
rwrist 20.0771
rhand -31.8564 98.6975
rfingers 7.12502
rthumb 174.89 -51.3841
lclavicle -3.33958e-014 -9.85972e-014
lhumerus 90.2545 15.8811 9.55147
lradius 35.0496
lwrist 38.4572
lhand -48.5767 -257.587
lfingers 7.12502
lthumb -21.2225 -73.5552
rfemur -90.6489 -35.3679 -13.1094
rtibia 69.8368
rfoot -23.2694 -27.7784
rtoes -10.6304
lfemur -24.9879 5.65306 -2.28112
ltibia 30.854
lfoot -20.9314 22.4494
ltoes -8.85325
76
root 2.05874 17.2937 -24.1779 173.59 -57.9117 5.21306
lowerback -2.63256 8.11368 11.7517
upperback -21.4602 13.0548 -8.75695
thorax -17.9432 3.67576 -18.216
lowerneck -1.81494 -2.34443 28.3155
upperneck -17.7646 -3.94113 -8.41859
head -5.96041 -3.48787 -7.10046
rclavicle -1.7175e-013 -6.52014e-014
rhumerus 50.9692 -20.3788 -23.8397
rradius 29.4529
rwrist 20.48
rhand -31.0783 99.1213
rfingers 7.12502
rthumb 175.641 -50.9435
lclavicle -1.7175e-013 -6.52014e-014
lhumerus 89.9952 16.4496 9.00405
lradius 34.2602
lwrist 38.7512
lhand -47.8328 -258.818
lfingers 7.12502
lthumb -20.5077 -72.2448
rfemur -87.461 -33.1572 -14.01
rtibia 67.6492
rfoot -23.2011 -29.6659
rtoes -9.16221
lfemur -26.1191 4.98625 -0.90523
ltibia 27.8709
lfoot -20.8285 24.1692
ltoes -11.5189
